<svg width="29" height="29" viewBox="0 0 29 29" fill="none" xmlns="http://www.w3.org/2000/svg">
<circle cx="14.5" cy="14.5" r="12.5" stroke="black" stroke-opacity="0.1" stroke-width="2.31481"/>
<path d="M17.9722 2.4629C15.8889 1.99994 15.6574 1.99994 14.5 2" stroke="#11B826" stroke-width="2.31481" stroke-linecap="round"/>
<path d="M9.90062 14.2731C9.90062 13.4722 10.0349 12.8472 10.3034 12.3981C10.5765 11.9444 11.0441 11.7176 11.7062 11.7176C12.3682 11.7176 12.8335 11.9444 13.102 12.3981C13.3752 12.8472 13.5117 13.4722 13.5117 14.2731C13.5117 15.0833 13.3752 15.7176 13.102 16.1759C12.8335 16.6296 12.3682 16.8565 11.7062 16.8565C11.0441 16.8565 10.5765 16.6296 10.3034 16.1759C10.0349 15.7176 9.90062 15.0833 9.90062 14.2731ZM12.7339 14.2731C12.7339 13.8981 12.7085 13.581 12.6576 13.3218C12.6113 13.0625 12.514 12.8518 12.3659 12.6898C12.2177 12.5231 11.9978 12.4398 11.7062 12.4398C11.4145 12.4398 11.1946 12.5231 11.0465 12.6898C10.8983 12.8518 10.7988 13.0625 10.7478 13.3218C10.7015 13.581 10.6784 13.8981 10.6784 14.2731C10.6784 14.662 10.7015 14.9884 10.7478 15.2523C10.7941 15.5162 10.8914 15.7292 11.0395 15.8912C11.1923 16.0532 11.4145 16.1343 11.7062 16.1343C11.9978 16.1343 12.2177 16.0532 12.3659 15.8912C12.5187 15.7292 12.6182 15.5162 12.6645 15.2523C12.7108 14.9884 12.7339 14.662 12.7339 14.2731ZM14.2938 13.0301C14.2938 12.6921 14.3911 12.4282 14.5855 12.2384C14.7846 12.044 15.0392 11.9468 15.3494 11.9468C15.6596 11.9468 15.9119 12.044 16.1063 12.2384C16.3054 12.4282 16.405 12.6921 16.405 13.0301C16.405 13.368 16.3054 13.6343 16.1063 13.8287C15.9119 14.0231 15.6596 14.1204 15.3494 14.1204C15.0392 14.1204 14.7846 14.0231 14.5855 13.8287C14.3911 13.6343 14.2938 13.368 14.2938 13.0301ZM18.53 12.037L15.7591 16.8704H14.9813L17.7522 12.037H18.53ZM15.3494 12.4259C15.0577 12.4259 14.9119 12.6273 14.9119 13.0301C14.9119 13.4375 15.0577 13.6412 15.3494 13.6412C15.4883 13.6412 15.5948 13.5926 15.6688 13.4954C15.7475 13.3935 15.7869 13.2384 15.7869 13.0301C15.7869 12.6273 15.6411 12.4259 15.3494 12.4259ZM17.1202 15.8704C17.1202 15.5324 17.2175 15.2685 17.4119 15.0787C17.611 14.8843 17.8656 14.787 18.1758 14.787C18.4813 14.787 18.7313 14.8843 18.9258 15.0787C19.1249 15.2685 19.2244 15.5324 19.2244 15.8704C19.2244 16.2083 19.1249 16.4745 18.9258 16.669C18.7313 16.8634 18.4813 16.9606 18.1758 16.9606C17.8656 16.9606 17.611 16.8634 17.4119 16.669C17.2175 16.4745 17.1202 16.2083 17.1202 15.8704ZM18.1688 15.2662C17.8772 15.2662 17.7313 15.4676 17.7313 15.8704C17.7313 16.2731 17.8772 16.4745 18.1688 16.4745C18.4605 16.4745 18.6063 16.2731 18.6063 15.8704C18.6063 15.4676 18.4605 15.2662 18.1688 15.2662Z" fill="#11B826"/>
</svg>
