<svg width="30" height="30" viewBox="0 0 30 30" fill="none" xmlns="http://www.w3.org/2000/svg">
<circle cx="14.9593" cy="15.0408" r="12.9593" stroke="black" stroke-opacity="0.1" stroke-width="2.39986"/>
<path d="M3.80397 8.4453C2.25199 11.0702 1.67536 14.1584 2.17554 17.1665C2.67572 20.1746 4.22066 22.91 6.53858 24.8914C8.8565 26.8729 11.7989 27.9735 14.8482 27.9996C17.8975 28.0258 20.8584 26.9758 23.2099 25.0343C25.5615 23.0929 26.9094 21.2707 27.7047 17.3853C28.5 13.4999 27.1791 1.67486 14 2.00024" stroke="#DE0808" stroke-width="2.39986" stroke-linecap="round"/>
<path d="M6.68602 13.2612V12.5125H8.18353V17.761H7.35558V13.2612H6.68602ZM9.38305 15.0683C9.38305 14.238 9.52224 13.59 9.80063 13.1245C10.0838 12.6541 10.5686 12.4189 11.2549 12.4189C11.9413 12.4189 12.4237 12.6541 12.7021 13.1245C12.9852 13.59 13.1268 14.238 13.1268 15.0683C13.1268 15.9083 12.9852 16.5659 12.7021 17.041C12.4237 17.5114 11.9413 17.7466 11.2549 17.7466C10.5686 17.7466 10.0838 17.5114 9.80063 17.041C9.52224 16.5659 9.38305 15.9083 9.38305 15.0683ZM12.3205 15.0683C12.3205 14.6796 12.2941 14.3508 12.2413 14.082C12.1933 13.8132 12.0925 13.5948 11.9389 13.4268C11.7853 13.254 11.5573 13.1677 11.2549 13.1677C10.9526 13.1677 10.7246 13.254 10.571 13.4268C10.4174 13.5948 10.3142 13.8132 10.2614 14.082C10.2134 14.3508 10.1894 14.6796 10.1894 15.0683C10.1894 15.4715 10.2134 15.8099 10.2614 16.0835C10.3094 16.3571 10.4102 16.5779 10.5638 16.7458C10.7222 16.9138 10.9526 16.9978 11.2549 16.9978C11.5573 16.9978 11.7853 16.9138 11.9389 16.7458C12.0973 16.5779 12.2005 16.3571 12.2485 16.0835C12.2965 15.8099 12.3205 15.4715 12.3205 15.0683ZM14.0673 15.0683C14.0673 14.238 14.2065 13.59 14.4849 13.1245C14.768 12.6541 15.2528 12.4189 15.9392 12.4189C16.6255 12.4189 17.1079 12.6541 17.3863 13.1245C17.6695 13.59 17.8111 14.238 17.8111 15.0683C17.8111 15.9083 17.6695 16.5659 17.3863 17.041C17.1079 17.5114 16.6255 17.7466 15.9392 17.7466C15.2528 17.7466 14.768 17.5114 14.4849 17.041C14.2065 16.5659 14.0673 15.9083 14.0673 15.0683ZM17.0047 15.0683C17.0047 14.6796 16.9783 14.3508 16.9255 14.082C16.8775 13.8132 16.7767 13.5948 16.6231 13.4268C16.4695 13.254 16.2416 13.1677 15.9392 13.1677C15.6368 13.1677 15.4088 13.254 15.2552 13.4268C15.1016 13.5948 14.9984 13.8132 14.9456 14.082C14.8976 14.3508 14.8736 14.6796 14.8736 15.0683C14.8736 15.4715 14.8976 15.8099 14.9456 16.0835C14.9936 16.3571 15.0944 16.5779 15.248 16.7458C15.4064 16.9138 15.6368 16.9978 15.9392 16.9978C16.2416 16.9978 16.4695 16.9138 16.6231 16.7458C16.7815 16.5779 16.8847 16.3571 16.9327 16.0835C16.9807 15.8099 17.0047 15.4715 17.0047 15.0683ZM18.6219 13.7796C18.6219 13.4292 18.7227 13.1557 18.9243 12.9589C19.1307 12.7573 19.3947 12.6565 19.7163 12.6565C20.0378 12.6565 20.2994 12.7573 20.501 12.9589C20.7074 13.1557 20.8106 13.4292 20.8106 13.7796C20.8106 14.13 20.7074 14.406 20.501 14.6076C20.2994 14.8092 20.0378 14.9099 19.7163 14.9099C19.3947 14.9099 19.1307 14.8092 18.9243 14.6076C18.7227 14.406 18.6219 14.13 18.6219 13.7796ZM23.0137 12.7501L20.141 17.761H19.3347L22.2073 12.7501H23.0137ZM19.7163 13.1533C19.4139 13.1533 19.2627 13.362 19.2627 13.7796C19.2627 14.202 19.4139 14.4132 19.7163 14.4132C19.8602 14.4132 19.9706 14.3628 20.0474 14.262C20.129 14.1564 20.1698 13.9956 20.1698 13.7796C20.1698 13.362 20.0186 13.1533 19.7163 13.1533ZM21.5522 16.7242C21.5522 16.3739 21.6529 16.1003 21.8545 15.9035C22.0609 15.7019 22.3249 15.6011 22.6465 15.6011C22.9633 15.6011 23.2225 15.7019 23.424 15.9035C23.6304 16.1003 23.7336 16.3739 23.7336 16.7242C23.7336 17.0746 23.6304 17.3506 23.424 17.5522C23.2225 17.7538 22.9633 17.8546 22.6465 17.8546C22.3249 17.8546 22.0609 17.7538 21.8545 17.5522C21.6529 17.3506 21.5522 17.0746 21.5522 16.7242ZM22.6393 16.0979C22.3369 16.0979 22.1857 16.3067 22.1857 16.7242C22.1857 17.1418 22.3369 17.3506 22.6393 17.3506C22.9417 17.3506 23.0929 17.1418 23.0929 16.7242C23.0929 16.3067 22.9417 16.0979 22.6393 16.0979Z" fill="#DE0808"/>
</svg>
