<svg width="30" height="30" viewBox="0 0 30 30" fill="none" xmlns="http://www.w3.org/2000/svg">
<circle cx="14.9593" cy="15.0408" r="12.9593" stroke="black" stroke-opacity="0.1" stroke-width="2.39986"/>
<path d="M3.80397 8.44519C5.35596 5.82026 7.78389 3.82669 10.6607 2.81519C19.279 -0.215123 24.7192 5.98621 26.226 8.63736C27.7328 11.2885 28.2564 14.3861 27.7047 17.3852C27.153 20.3843 25.5615 23.0928 23.2099 25.0342C20.8584 26.9757 17.8975 28.0257 14.8482 27.9995C11.7989 27.9734 8.8565 26.8728 6.53858 24.8913C4.22066 22.9099 2.67572 20.1745 2.17554 17.1664C1.67536 14.1583 2.25199 11.0701 3.80397 8.44519Z" stroke="#F51D1D" stroke-width="2.39986" stroke-linecap="round"/>
<path d="M6.91452 13.2612V12.5125H8.41203V17.761H7.58408V13.2612H6.91452ZM10.0651 16.6451C10.5259 16.2467 10.8883 15.9203 11.1523 15.6659C11.421 15.4067 11.6442 15.1379 11.8218 14.8596C11.9994 14.5812 12.0882 14.3028 12.0882 14.0244C12.0882 13.7364 12.0186 13.5108 11.8794 13.3476C11.745 13.1844 11.5314 13.1029 11.2387 13.1029C10.9555 13.1029 10.7347 13.194 10.5763 13.3764C10.4227 13.554 10.3411 13.794 10.3315 14.0964H9.53956C9.55396 13.5492 9.71715 13.1317 10.0291 12.8437C10.3459 12.5509 10.7467 12.4045 11.2315 12.4045C11.7546 12.4045 12.1626 12.5485 12.4554 12.8365C12.753 13.1245 12.9018 13.5084 12.9018 13.9884C12.9018 14.334 12.813 14.6676 12.6354 14.9891C12.4626 15.3059 12.2538 15.5915 12.009 15.8459C11.769 16.0955 11.4618 16.3859 11.0875 16.717L10.7635 17.005H13.0458V17.689H9.54676V17.0914L10.0651 16.6451ZM13.8388 15.0683C13.8388 14.238 13.978 13.59 14.2564 13.1245C14.5395 12.6541 15.0243 12.4189 15.7107 12.4189C16.397 12.4189 16.8794 12.6541 17.1578 13.1245C17.441 13.59 17.5826 14.238 17.5826 15.0683C17.5826 15.9083 17.441 16.5659 17.1578 17.041C16.8794 17.5114 16.397 17.7466 15.7107 17.7466C15.0243 17.7466 14.5395 17.5114 14.2564 17.041C13.978 16.5659 13.8388 15.9083 13.8388 15.0683ZM16.7762 15.0683C16.7762 14.6796 16.7498 14.3508 16.697 14.082C16.649 13.8132 16.5482 13.5948 16.3946 13.4268C16.241 13.254 16.0131 13.1677 15.7107 13.1677C15.4083 13.1677 15.1803 13.254 15.0267 13.4268C14.8731 13.5948 14.7699 13.8132 14.7171 14.082C14.6691 14.3508 14.6451 14.6796 14.6451 15.0683C14.6451 15.4715 14.6691 15.8099 14.7171 16.0835C14.7651 16.3571 14.8659 16.5779 15.0195 16.7458C15.1779 16.9138 15.4083 16.9978 15.7107 16.9978C16.0131 16.9978 16.241 16.9138 16.3946 16.7458C16.553 16.5779 16.6562 16.3571 16.7042 16.0835C16.7522 15.8099 16.7762 15.4715 16.7762 15.0683ZM18.3934 13.7796C18.3934 13.4292 18.4942 13.1557 18.6958 12.9589C18.9022 12.7573 19.1662 12.6565 19.4878 12.6565C19.8093 12.6565 20.0709 12.7573 20.2725 12.9589C20.4789 13.1557 20.5821 13.4292 20.5821 13.7796C20.5821 14.13 20.4789 14.406 20.2725 14.6076C20.0709 14.8092 19.8093 14.9099 19.4878 14.9099C19.1662 14.9099 18.9022 14.8092 18.6958 14.6076C18.4942 14.406 18.3934 14.13 18.3934 13.7796ZM22.7852 12.7501L19.9125 17.761H19.1062L21.9788 12.7501H22.7852ZM19.4878 13.1533C19.1854 13.1533 19.0342 13.362 19.0342 13.7796C19.0342 14.202 19.1854 14.4132 19.4878 14.4132C19.6317 14.4132 19.7421 14.3628 19.8189 14.262C19.9005 14.1564 19.9413 13.9956 19.9413 13.7796C19.9413 13.362 19.7901 13.1533 19.4878 13.1533ZM21.3236 16.7242C21.3236 16.3739 21.4244 16.1003 21.626 15.9035C21.8324 15.7019 22.0964 15.6011 22.418 15.6011C22.7348 15.6011 22.994 15.7019 23.1955 15.9035C23.4019 16.1003 23.5051 16.3739 23.5051 16.7242C23.5051 17.0746 23.4019 17.3506 23.1955 17.5522C22.994 17.7538 22.7348 17.8546 22.418 17.8546C22.0964 17.8546 21.8324 17.7538 21.626 17.5522C21.4244 17.3506 21.3236 17.0746 21.3236 16.7242ZM22.4108 16.0979C22.1084 16.0979 21.9572 16.3067 21.9572 16.7242C21.9572 17.1418 22.1084 17.3506 22.4108 17.3506C22.7132 17.3506 22.8644 17.1418 22.8644 16.7242C22.8644 16.3067 22.7132 16.0979 22.4108 16.0979Z" fill="#F51D1D"/>
</svg>
