<svg width="29" height="29" viewBox="0 0 29 29" fill="none" xmlns="http://www.w3.org/2000/svg">
<circle cx="14.5" cy="14.5" r="12.5" stroke="black" stroke-opacity="0.1" stroke-width="2.22222"/>
<path d="M27 15.6574C27 12.1852 26.7685 11.9537 26.0485 9.71646C25.1024 7.43238 23.5002 5.48015 21.4446 4.10663C19.389 2.73311 16.9723 2 14.5 2" stroke="#2ED47A" stroke-width="2.22222" stroke-linecap="round"/>
<path d="M8.75641 15.3741C9.18307 15.0052 9.51863 14.703 9.76307 14.4675C10.012 14.2275 10.2186 13.9786 10.3831 13.7208C10.5475 13.463 10.6297 13.2052 10.6297 12.9475C10.6297 12.6808 10.5653 12.4719 10.4364 12.3208C10.312 12.1697 10.1142 12.0941 9.84307 12.0941C9.58085 12.0941 9.37641 12.1786 9.22974 12.3475C9.08752 12.5119 9.01196 12.7341 9.00307 13.0141H8.26974C8.28307 12.5075 8.43418 12.1208 8.72307 11.8541C9.01641 11.583 9.38752 11.4475 9.83641 11.4475C10.3209 11.4475 10.6986 11.5808 10.9697 11.8475C11.2453 12.1141 11.3831 12.4697 11.3831 12.9141C11.3831 13.2341 11.3009 13.543 11.1364 13.8408C10.9764 14.1341 10.7831 14.3986 10.5564 14.6341C10.3342 14.8652 10.0497 15.1341 9.70307 15.4408L9.40307 15.7075H11.5164V16.3408H8.27641V15.7875L8.75641 15.3741ZM12.1574 15.3941V14.8208L14.3974 11.6075H15.3174V14.7341H15.9374V15.3941H15.3174V16.4075H14.5707V15.3941H12.1574ZM14.6041 12.3808L13.0307 14.7341H14.6041V12.3808ZM16.5138 12.7208C16.5138 12.3964 16.6071 12.143 16.7938 11.9608C16.9849 11.7741 17.2294 11.6808 17.5271 11.6808C17.8249 11.6808 18.0671 11.7741 18.2538 11.9608C18.4449 12.143 18.5405 12.3964 18.5405 12.7208C18.5405 13.0452 18.4449 13.3008 18.2538 13.4875C18.0671 13.6741 17.8249 13.7675 17.5271 13.7675C17.2294 13.7675 16.9849 13.6741 16.7938 13.4875C16.6071 13.3008 16.5138 13.0452 16.5138 12.7208ZM20.5805 11.7675L17.9205 16.4075H17.1738L19.8338 11.7675H20.5805ZM17.5271 12.1408C17.2471 12.1408 17.1071 12.3341 17.1071 12.7208C17.1071 13.1119 17.2471 13.3075 17.5271 13.3075C17.6605 13.3075 17.7627 13.2608 17.8338 13.1675C17.9094 13.0697 17.9471 12.9208 17.9471 12.7208C17.9471 12.3341 17.8071 12.1408 17.5271 12.1408ZM19.2271 15.4475C19.2271 15.123 19.3205 14.8697 19.5071 14.6875C19.6982 14.5008 19.9427 14.4075 20.2405 14.4075C20.5338 14.4075 20.7738 14.5008 20.9605 14.6875C21.1516 14.8697 21.2471 15.123 21.2471 15.4475C21.2471 15.7719 21.1516 16.0275 20.9605 16.2141C20.7738 16.4008 20.5338 16.4941 20.2405 16.4941C19.9427 16.4941 19.6982 16.4008 19.5071 16.2141C19.3205 16.0275 19.2271 15.7719 19.2271 15.4475ZM20.2338 14.8675C19.9538 14.8675 19.8138 15.0608 19.8138 15.4475C19.8138 15.8341 19.9538 16.0275 20.2338 16.0275C20.5138 16.0275 20.6538 15.8341 20.6538 15.4475C20.6538 15.0608 20.5138 14.8675 20.2338 14.8675Z" fill="#2ED47A"/>
</svg>
