<svg width="29" height="29" viewBox="0 0 29 29" fill="none" xmlns="http://www.w3.org/2000/svg">
<circle cx="14.5" cy="14.5" r="12.5" stroke="black" stroke-opacity="0.1" stroke-width="2.22222"/>
<path d="M23.5 23C28 19 27.0888 12.2281 26.0485 9.71646C25.0081 7.20484 23.5002 5.48015 21.4446 4.10663C19.389 2.73311 16.9723 2 14.5 2" stroke="#003F1D" stroke-width="2.22222" stroke-linecap="round"/>
<path d="M8.28727 12.7475C8.31393 12.3341 8.47171 12.0119 8.7606 11.7808C9.05393 11.5497 9.42727 11.4341 9.8806 11.4341C10.1917 11.4341 10.4606 11.4897 10.6873 11.6008C10.9139 11.7119 11.085 11.863 11.2006 12.0541C11.3162 12.2452 11.3739 12.4608 11.3739 12.7008C11.3739 12.9764 11.3006 13.2119 11.1539 13.4075C11.0073 13.603 10.8317 13.7341 10.6273 13.8008V13.8275C10.8895 13.9075 11.0939 14.0541 11.2406 14.2675C11.3873 14.4764 11.4606 14.7452 11.4606 15.0741C11.4606 15.3364 11.4006 15.5697 11.2806 15.7741C11.1606 15.9786 10.9828 16.1408 10.7473 16.2608C10.5117 16.3764 10.2295 16.4341 9.9006 16.4341C9.4206 16.4341 9.02504 16.3119 8.71393 16.0675C8.40727 15.8186 8.24282 15.463 8.2206 15.0008H8.95393C8.97171 15.2364 9.06282 15.4297 9.22727 15.5808C9.39171 15.7275 9.61393 15.8008 9.89393 15.8008C10.165 15.8008 10.3739 15.7275 10.5206 15.5808C10.6673 15.4297 10.7406 15.2364 10.7406 15.0008C10.7406 14.6897 10.6406 14.4697 10.4406 14.3408C10.245 14.2075 9.94282 14.1408 9.53393 14.1408H9.3606V13.5141H9.5406C9.9006 13.5097 10.1739 13.4497 10.3606 13.3341C10.5517 13.2186 10.6473 13.0364 10.6473 12.7875C10.6473 12.5741 10.5784 12.4052 10.4406 12.2808C10.3028 12.1519 10.1073 12.0875 9.85393 12.0875C9.60504 12.0875 9.41171 12.1519 9.27393 12.2808C9.13616 12.4052 9.05393 12.5608 9.02727 12.7475H8.28727ZM14.9389 12.6741C14.89 12.4697 14.8012 12.3164 14.6723 12.2141C14.5434 12.1119 14.3634 12.0608 14.1323 12.0608C13.7812 12.0608 13.5189 12.1964 13.3456 12.4675C13.1723 12.7341 13.0812 13.1786 13.0723 13.8008C13.1878 13.6052 13.3567 13.4541 13.5789 13.3475C13.8012 13.2408 14.0412 13.1875 14.2989 13.1875C14.5923 13.1875 14.85 13.2519 15.0723 13.3808C15.2989 13.5052 15.4745 13.6875 15.5989 13.9275C15.7278 14.1675 15.7923 14.4541 15.7923 14.7875C15.7923 15.0986 15.73 15.3764 15.6056 15.6208C15.4856 15.8652 15.3056 16.0586 15.0656 16.2008C14.8256 16.3386 14.5367 16.4075 14.1989 16.4075C13.7412 16.4075 13.3812 16.3075 13.1189 16.1075C12.8612 15.903 12.6789 15.6164 12.5723 15.2475C12.47 14.8786 12.4189 14.4186 12.4189 13.8675C12.4189 12.2408 12.9923 11.4275 14.1389 11.4275C14.5834 11.4275 14.9323 11.5475 15.1856 11.7875C15.4434 12.0275 15.5945 12.323 15.6389 12.6741H14.9389ZM14.1323 13.8275C13.8612 13.8275 13.63 13.9097 13.4389 14.0741C13.2523 14.2341 13.1589 14.4675 13.1589 14.7741C13.1589 15.0808 13.2456 15.3252 13.4189 15.5075C13.5967 15.6852 13.8434 15.7741 14.1589 15.7741C14.4389 15.7741 14.6589 15.6875 14.8189 15.5141C14.9834 15.3408 15.0656 15.1097 15.0656 14.8208C15.0656 14.5186 14.9856 14.2786 14.8256 14.1008C14.67 13.9186 14.4389 13.8275 14.1323 13.8275ZM16.5496 12.7208C16.5496 12.3964 16.6429 12.143 16.8296 11.9608C17.0207 11.7741 17.2652 11.6808 17.5629 11.6808C17.8607 11.6808 18.1029 11.7741 18.2896 11.9608C18.4807 12.143 18.5763 12.3964 18.5763 12.7208C18.5763 13.0452 18.4807 13.3008 18.2896 13.4875C18.1029 13.6741 17.8607 13.7675 17.5629 13.7675C17.2652 13.7675 17.0207 13.6741 16.8296 13.4875C16.6429 13.3008 16.5496 13.0452 16.5496 12.7208ZM20.6163 11.7675L17.9563 16.4075H17.2096L19.8696 11.7675H20.6163ZM17.5629 12.1408C17.2829 12.1408 17.1429 12.3341 17.1429 12.7208C17.1429 13.1119 17.2829 13.3075 17.5629 13.3075C17.6963 13.3075 17.7985 13.2608 17.8696 13.1675C17.9452 13.0697 17.9829 12.9208 17.9829 12.7208C17.9829 12.3341 17.8429 12.1408 17.5629 12.1408ZM19.2629 15.4475C19.2629 15.123 19.3563 14.8697 19.5429 14.6875C19.7341 14.5008 19.9785 14.4075 20.2763 14.4075C20.5696 14.4075 20.8096 14.5008 20.9963 14.6875C21.1874 14.8697 21.2829 15.123 21.2829 15.4475C21.2829 15.7719 21.1874 16.0275 20.9963 16.2141C20.8096 16.4008 20.5696 16.4941 20.2763 16.4941C19.9785 16.4941 19.7341 16.4008 19.5429 16.2141C19.3563 16.0275 19.2629 15.7719 19.2629 15.4475ZM20.2696 14.8675C19.9896 14.8675 19.8496 15.0608 19.8496 15.4475C19.8496 15.8341 19.9896 16.0275 20.2696 16.0275C20.5496 16.0275 20.6896 15.8341 20.6896 15.4475C20.6896 15.0608 20.5496 14.8675 20.2696 14.8675Z" fill="#003F1D"/>
</svg>
