<svg width="29" height="29" viewBox="0 0 29 29" fill="none" xmlns="http://www.w3.org/2000/svg">
<circle cx="14.5" cy="14.5" r="12.5" stroke="black" stroke-opacity="0.1" stroke-width="2.31481"/>
<path d="M4.14666 21.5042C5.3453 23.276 6.97859 24.7105 8.89023 25.6705C10.8019 26.6305 12.9279 27.0839 15.0649 26.9872C17.2019 26.8906 19.2783 26.2471 21.0954 25.1184C22.9126 23.9897 24.4097 22.4136 25.4434 20.5408C26.4772 18.668 27.0131 16.5612 26.9998 14.4221C26.9864 12.283 26.4244 10.1831 25.3673 8.32334C24.3103 6.46358 22.7937 4.90621 20.9626 3.80025C19.1315 2.69428 17.0473 2.07674 14.9092 2.0067" stroke="#FF9E01" stroke-width="2.31481" stroke-linecap="round"/>
<path d="M10.4588 12.8148C10.3977 12.5592 10.2866 12.3676 10.1255 12.2398C9.96435 12.112 9.73935 12.0481 9.45046 12.0481C9.01157 12.0481 8.6838 12.2176 8.46713 12.5564C8.25046 12.8898 8.13657 13.4453 8.12546 14.2231C8.26991 13.9787 8.48102 13.7898 8.7588 13.6564C9.03657 13.5231 9.33657 13.4564 9.6588 13.4564C10.0255 13.4564 10.3477 13.537 10.6255 13.6981C10.9088 13.8537 11.1282 14.0814 11.2838 14.3814C11.4449 14.6814 11.5255 15.0398 11.5255 15.4564C11.5255 15.8453 11.4477 16.1926 11.2921 16.4981C11.1421 16.8037 10.9171 17.0453 10.6171 17.2231C10.3171 17.3953 9.95602 17.4814 9.5338 17.4814C8.96157 17.4814 8.51157 17.3564 8.1838 17.1064C7.86157 16.8509 7.6338 16.4926 7.50046 16.0314C7.37269 15.5703 7.3088 14.9953 7.3088 14.3064C7.3088 12.2731 8.02546 11.2564 9.4588 11.2564C10.0144 11.2564 10.4505 11.4064 10.7671 11.7064C11.0894 12.0064 11.2782 12.3759 11.3338 12.8148H10.4588ZM9.45046 14.2564C9.11157 14.2564 8.82269 14.3592 8.5838 14.5648C8.35046 14.7648 8.2338 15.0564 8.2338 15.4398C8.2338 15.8231 8.34213 16.1287 8.5588 16.3564C8.78102 16.5787 9.08935 16.6898 9.4838 16.6898C9.8338 16.6898 10.1088 16.5814 10.3088 16.3648C10.5144 16.1481 10.6171 15.8592 10.6171 15.4981C10.6171 15.1203 10.5171 14.8203 10.3171 14.5981C10.1227 14.3703 9.8338 14.2564 9.45046 14.2564ZM12.6221 14.3648C12.6221 13.4037 12.7833 12.6537 13.1055 12.1148C13.4333 11.5703 13.9944 11.2981 14.7888 11.2981C15.5833 11.2981 16.1416 11.5703 16.4638 12.1148C16.7916 12.6537 16.9555 13.4037 16.9555 14.3648C16.9555 15.337 16.7916 16.0981 16.4638 16.6481C16.1416 17.1926 15.5833 17.4648 14.7888 17.4648C13.9944 17.4648 13.4333 17.1926 13.1055 16.6481C12.7833 16.0981 12.6221 15.337 12.6221 14.3648ZM16.0221 14.3648C16.0221 13.9148 15.9916 13.5342 15.9305 13.2231C15.8749 12.912 15.7583 12.6592 15.5805 12.4648C15.4027 12.2648 15.1388 12.1648 14.7888 12.1648C14.4388 12.1648 14.1749 12.2648 13.9971 12.4648C13.8194 12.6592 13.6999 12.912 13.6388 13.2231C13.5833 13.5342 13.5555 13.9148 13.5555 14.3648C13.5555 14.8314 13.5833 15.2231 13.6388 15.5398C13.6944 15.8564 13.811 16.112 13.9888 16.3064C14.1721 16.5009 14.4388 16.5981 14.7888 16.5981C15.1388 16.5981 15.4027 16.5009 15.5805 16.3064C15.7638 16.112 15.8833 15.8564 15.9388 15.5398C15.9944 15.2231 16.0221 14.8314 16.0221 14.3648ZM17.894 12.8731C17.894 12.4676 18.0107 12.1509 18.244 11.9231C18.4829 11.6898 18.7885 11.5731 19.1607 11.5731C19.5329 11.5731 19.8357 11.6898 20.069 11.9231C20.3079 12.1509 20.4274 12.4676 20.4274 12.8731C20.4274 13.2787 20.3079 13.5981 20.069 13.8314C19.8357 14.0648 19.5329 14.1814 19.1607 14.1814C18.7885 14.1814 18.4829 14.0648 18.244 13.8314C18.0107 13.5981 17.894 13.2787 17.894 12.8731ZM22.9774 11.6814L19.6524 17.4814H18.719L22.044 11.6814H22.9774ZM19.1607 12.1481C18.8107 12.1481 18.6357 12.3898 18.6357 12.8731C18.6357 13.362 18.8107 13.6064 19.1607 13.6064C19.3274 13.6064 19.4551 13.5481 19.544 13.4314C19.6385 13.3092 19.6857 13.1231 19.6857 12.8731C19.6857 12.3898 19.5107 12.1481 19.1607 12.1481ZM21.2857 16.2814C21.2857 15.8759 21.4024 15.5592 21.6357 15.3314C21.8746 15.0981 22.1801 14.9814 22.5524 14.9814C22.919 14.9814 23.219 15.0981 23.4524 15.3314C23.6912 15.5592 23.8107 15.8759 23.8107 16.2814C23.8107 16.687 23.6912 17.0064 23.4524 17.2398C23.219 17.4731 22.919 17.5898 22.5524 17.5898C22.1801 17.5898 21.8746 17.4731 21.6357 17.2398C21.4024 17.0064 21.2857 16.687 21.2857 16.2814ZM22.544 15.5564C22.194 15.5564 22.019 15.7981 22.019 16.2814C22.019 16.7648 22.194 17.0064 22.544 17.0064C22.894 17.0064 23.069 16.7648 23.069 16.2814C23.069 15.7981 22.894 15.5564 22.544 15.5564Z" fill="#FF9E01"/>
</svg>
