<svg width="30" height="30" viewBox="0 0 30 30" fill="none" xmlns="http://www.w3.org/2000/svg">
<circle cx="14.9593" cy="15.0471" r="12.9593" stroke="black" stroke-opacity="0.1" stroke-width="2.39986"/>
<path d="M2.17578 17.1728C2.67596 20.181 4.2209 22.9163 6.53882 24.8978C8.85674 26.8793 11.7992 27.9799 14.8485 28.006C17.8978 28.0321 20.8586 26.9821 23.2101 25.0407C25.5617 23.0992 26.9097 21.2769 27.7049 17.3916C28.5002 13.5063 27.1793 1.6812 14.0002 2.00658" stroke="#F94B00" stroke-width="2.39986" stroke-linecap="round"/>
<path d="M8.98463 15.0245C8.48546 14.7749 8.23587 14.3814 8.23587 13.8438C8.23587 13.5846 8.30067 13.347 8.43026 13.131C8.55985 12.9151 8.75424 12.7447 9.01343 12.6199C9.27261 12.4903 9.58939 12.4255 9.96377 12.4255C10.3333 12.4255 10.6477 12.4903 10.9069 12.6199C11.1709 12.7447 11.3677 12.9151 11.4973 13.131C11.6269 13.347 11.6917 13.5846 11.6917 13.8438C11.6917 14.1126 11.6221 14.3502 11.4829 14.5566C11.3485 14.7582 11.1685 14.9141 10.9429 15.0245C11.2165 15.1253 11.4325 15.2909 11.5909 15.5213C11.7493 15.7469 11.8285 16.0133 11.8285 16.3205C11.8285 16.6324 11.7493 16.9084 11.5909 17.1484C11.4325 17.3884 11.2117 17.5732 10.9285 17.7028C10.6453 17.8324 10.3237 17.8972 9.96377 17.8972C9.60379 17.8972 9.28221 17.8324 8.99903 17.7028C8.72064 17.5732 8.50225 17.3884 8.34386 17.1484C8.18547 16.9084 8.10628 16.6324 8.10628 16.3205C8.10628 16.0085 8.18547 15.7397 8.34386 15.5141C8.50225 15.2885 8.71584 15.1253 8.98463 15.0245ZM10.9069 13.9446C10.9069 13.6758 10.8229 13.4694 10.6549 13.3254C10.4869 13.1814 10.2566 13.1094 9.96377 13.1094C9.67579 13.1094 9.4478 13.1814 9.27981 13.3254C9.11182 13.4694 9.02782 13.6782 9.02782 13.9518C9.02782 14.1918 9.11422 14.3886 9.28701 14.5422C9.4646 14.691 9.69019 14.7654 9.96377 14.7654C10.2374 14.7654 10.4629 14.6886 10.6405 14.535C10.8181 14.3814 10.9069 14.1846 10.9069 13.9446ZM9.96377 15.3845C9.64699 15.3845 9.3878 15.4637 9.18622 15.6221C8.98943 15.7757 8.89103 15.9989 8.89103 16.2917C8.89103 16.5652 8.98703 16.7884 9.17902 16.9612C9.371 17.1292 9.63259 17.2132 9.96377 17.2132C10.2902 17.2132 10.5469 17.1268 10.7341 16.954C10.9261 16.7812 11.0221 16.5604 11.0221 16.2917C11.0221 16.0037 10.9237 15.7805 10.7269 15.6221C10.5349 15.4637 10.2806 15.3845 9.96377 15.3845ZM12.7622 15.0749C12.7622 14.2446 12.9014 13.5966 13.1798 13.131C13.463 12.6607 13.9477 12.4255 14.6341 12.4255C15.3205 12.4255 15.8028 12.6607 16.0812 13.131C16.3644 13.5966 16.506 14.2446 16.506 15.0749C16.506 15.9149 16.3644 16.5724 16.0812 17.0476C15.8028 17.518 15.3205 17.7532 14.6341 17.7532C13.9477 17.7532 13.463 17.518 13.1798 17.0476C12.9014 16.5724 12.7622 15.9149 12.7622 15.0749ZM15.6996 15.0749C15.6996 14.6862 15.6732 14.3574 15.6205 14.0886C15.5725 13.8198 15.4717 13.6014 15.3181 13.4334C15.1645 13.2606 14.9365 13.1742 14.6341 13.1742C14.3317 13.1742 14.1037 13.2606 13.9501 13.4334C13.7966 13.6014 13.6934 13.8198 13.6406 14.0886C13.5926 14.3574 13.5686 14.6862 13.5686 15.0749C13.5686 15.4781 13.5926 15.8165 13.6406 16.0901C13.6886 16.3637 13.7894 16.5844 13.9429 16.7524C14.1013 16.9204 14.3317 17.0044 14.6341 17.0044C14.9365 17.0044 15.1645 16.9204 15.3181 16.7524C15.4765 16.5844 15.5797 16.3637 15.6277 16.0901C15.6756 15.8165 15.6996 15.4781 15.6996 15.0749ZM17.3169 13.7862C17.3169 13.4358 17.4176 13.1622 17.6192 12.9655C17.8256 12.7639 18.0896 12.6631 18.4112 12.6631C18.7328 12.6631 18.9944 12.7639 19.1959 12.9655C19.4023 13.1622 19.5055 13.4358 19.5055 13.7862C19.5055 14.1366 19.4023 14.4126 19.1959 14.6142C18.9944 14.8157 18.7328 14.9165 18.4112 14.9165C18.0896 14.9165 17.8256 14.8157 17.6192 14.6142C17.4176 14.4126 17.3169 14.1366 17.3169 13.7862ZM21.7086 12.7567L18.836 17.7676H18.0296L20.9022 12.7567H21.7086ZM18.4112 13.1598C18.1088 13.1598 17.9576 13.3686 17.9576 13.7862C17.9576 14.2086 18.1088 14.4198 18.4112 14.4198C18.5552 14.4198 18.6656 14.3694 18.7424 14.2686C18.824 14.163 18.8648 14.0022 18.8648 13.7862C18.8648 13.3686 18.7136 13.1598 18.4112 13.1598ZM20.2471 16.7308C20.2471 16.3805 20.3479 16.1069 20.5495 15.9101C20.7559 15.7085 21.0198 15.6077 21.3414 15.6077C21.6582 15.6077 21.9174 15.7085 22.119 15.9101C22.3254 16.1069 22.4286 16.3805 22.4286 16.7308C22.4286 17.0812 22.3254 17.3572 22.119 17.5588C21.9174 17.7604 21.6582 17.8612 21.3414 17.8612C21.0198 17.8612 20.7559 17.7604 20.5495 17.5588C20.3479 17.3572 20.2471 17.0812 20.2471 16.7308ZM21.3342 16.1045C21.0318 16.1045 20.8806 16.3133 20.8806 16.7308C20.8806 17.1484 21.0318 17.3572 21.3342 17.3572C21.6366 17.3572 21.7878 17.1484 21.7878 16.7308C21.7878 16.3133 21.6366 16.1045 21.3342 16.1045Z" fill="#F94B00"/>
</svg>
