<svg width="74" height="73" viewBox="0 0 74 73" fill="none" xmlns="http://www.w3.org/2000/svg">
<circle cx="36.9513" cy="36.1125" r="34.1115" stroke="black" stroke-opacity="0.1" stroke-width="3.90341"/>
<path d="M46.4266 3.26321C40.7413 1.99985 40.1096 1.99983 36.9512 2" stroke="#11B826" stroke-width="3.90341" stroke-linecap="round"/>
<path d="M27.728 37.099C27.728 35.4843 27.9987 34.2243 28.54 33.319C29.0907 32.4043 30.0333 31.947 31.368 31.947C32.7027 31.947 33.6407 32.4043 34.182 33.319C34.7327 34.2243 35.008 35.4843 35.008 37.099C35.008 38.7323 34.7327 40.011 34.182 40.935C33.6407 41.8496 32.7027 42.307 31.368 42.307C30.0333 42.307 29.0907 41.8496 28.54 40.935C27.9987 40.011 27.728 38.7323 27.728 37.099ZM33.44 37.099C33.44 36.343 33.3887 35.7036 33.286 35.181C33.1927 34.6583 32.9967 34.2336 32.698 33.907C32.3993 33.571 31.956 33.403 31.368 33.403C30.78 33.403 30.3367 33.571 30.038 33.907C29.7393 34.2336 29.5387 34.6583 29.436 35.181C29.3427 35.7036 29.296 36.343 29.296 37.099C29.296 37.883 29.3427 38.541 29.436 39.073C29.5293 39.605 29.7253 40.0343 30.024 40.361C30.332 40.6876 30.78 40.851 31.368 40.851C31.956 40.851 32.3993 40.6876 32.698 40.361C33.006 40.0343 33.2067 39.605 33.3 39.073C33.3933 38.541 33.44 37.883 33.44 37.099ZM36.5848 34.593C36.5848 33.9116 36.7808 33.3796 37.1728 32.997C37.5741 32.605 38.0874 32.409 38.7128 32.409C39.3381 32.409 39.8468 32.605 40.2388 32.997C40.6401 33.3796 40.8408 33.9116 40.8408 34.593C40.8408 35.2743 40.6401 35.811 40.2388 36.203C39.8468 36.595 39.3381 36.791 38.7128 36.791C38.0874 36.791 37.5741 36.595 37.1728 36.203C36.7808 35.811 36.5848 35.2743 36.5848 34.593ZM45.1248 32.591L39.5388 42.335H37.9708L43.5568 32.591H45.1248ZM38.7128 33.375C38.1248 33.375 37.8308 33.781 37.8308 34.593C37.8308 35.4143 38.1248 35.825 38.7128 35.825C38.9928 35.825 39.2074 35.727 39.3568 35.531C39.5154 35.3256 39.5948 35.013 39.5948 34.593C39.5948 33.781 39.3008 33.375 38.7128 33.375ZM42.2828 40.319C42.2828 39.6376 42.4788 39.1056 42.8708 38.723C43.2721 38.331 43.7854 38.135 44.4108 38.135C45.0268 38.135 45.5308 38.331 45.9228 38.723C46.3241 39.1056 46.5248 39.6376 46.5248 40.319C46.5248 41.0003 46.3241 41.537 45.9228 41.929C45.5308 42.321 45.0268 42.517 44.4108 42.517C43.7854 42.517 43.2721 42.321 42.8708 41.929C42.4788 41.537 42.2828 41.0003 42.2828 40.319ZM44.3968 39.101C43.8088 39.101 43.5148 39.507 43.5148 40.319C43.5148 41.131 43.8088 41.537 44.3968 41.537C44.9848 41.537 45.2788 41.131 45.2788 40.319C45.2788 39.507 44.9848 39.101 44.3968 39.101Z" fill="#11B826"/>
</svg>
